<svg width="24" height="24" viewBox="0 0 24 24" fill="none" xmlns="http://www.w3.org/2000/svg">
<path fill-rule="evenodd" clip-rule="evenodd" d="M4 11.2748C4 7.09554 7.39791 4 11.78 4C16.1621 4 19.56 7.09742 19.56 11.2767C19.56 15.4559 16.1621 18.5515 11.78 18.5515C10.9923 18.5515 10.2376 18.4502 9.52769 18.2627C9.38959 18.2271 9.24177 18.2365 9.11146 18.2927L7.56713 18.949C7.47386 18.9886 7.37191 19.0056 7.27024 18.9984C7.16858 18.9912 7.0703 18.96 6.98406 18.9076C6.89782 18.8552 6.82625 18.7832 6.77564 18.6979C6.72504 18.6126 6.69694 18.5166 6.69382 18.4184L6.65104 17.0834C6.64715 16.9184 6.56934 16.7647 6.44292 16.6559C4.92971 15.3509 4 13.461 4 11.2748ZM9.39349 9.90796L7.10812 13.4029C6.88833 13.7385 7.31623 14.1153 7.64299 13.8754L10.0976 12.0792C10.1783 12.02 10.2769 11.9879 10.3783 11.9875C10.4797 11.9872 10.5785 12.0187 10.6597 12.0773L12.4783 13.3916C12.6073 13.485 12.7549 13.5516 12.912 13.5872C13.069 13.6228 13.232 13.6266 13.3906 13.5984C13.5493 13.5702 13.7001 13.5106 13.8337 13.4234C13.9672 13.3362 14.0805 13.2232 14.1665 13.0916L16.4538 9.5986C16.6717 9.26298 16.2438 8.88424 15.917 9.12424L13.4624 10.9204C13.3817 10.9796 13.2831 11.0117 13.1817 11.0121C13.0803 11.0124 12.9815 10.9809 12.9003 10.9223L11.0818 9.60797C10.9528 9.51459 10.8051 9.448 10.6481 9.41241C10.491 9.37681 10.328 9.37299 10.1694 9.40118C10.0108 9.42937 9.8599 9.48896 9.72635 9.57619C9.5928 9.66341 9.47946 9.77638 9.39349 9.90796Z" fill="#B5B5B5"/>
</svg>
