<svg width="24" height="24" viewBox="0 0 24 24" fill="none" xmlns="http://www.w3.org/2000/svg">
<path d="M9.20648 14.4389C11.0255 16.2622 13.2393 17.6667 15.046 17.6667C15.8538 17.6667 16.5629 17.3833 17.1302 16.755C17.4632 16.3854 17.6667 15.9604 17.6667 15.5354C17.6667 15.2089 17.5372 14.8886 17.2227 14.6668L15.3296 13.324C15.0275 13.1146 14.7808 13.016 14.5588 13.016C14.269 13.016 14.01 13.1762 13.7264 13.4595L13.2824 13.903C13.2084 13.9708 13.1221 14.0016 13.0419 14.0016C12.9433 14.0016 12.8508 13.9646 12.7891 13.9277C12.4006 13.7182 11.7347 13.1515 11.118 12.5356C10.5014 11.9196 9.92794 11.2605 9.72445 10.8662C9.68746 10.7985 9.65662 10.7122 9.65662 10.6137C9.65662 10.5398 9.68129 10.4535 9.74912 10.3796L10.1931 9.92995C10.4706 9.64044 10.6371 9.38789 10.6371 9.09838C10.6371 8.87047 10.5384 8.62408 10.3288 8.32841L8.99066 6.45583C8.76251 6.13552 8.44186 6 8.09038 6C7.67107 6 7.25176 6.18479 6.88795 6.5359C6.27132 7.11492 6 7.83562 6 8.63024C6 10.4351 7.38742 12.6218 9.20648 14.4389Z" fill="#B5B5B5"/>
</svg>
